# falcon_trainer — generated RC-plane mesh (HobbyKing Falcon Trainer
# 20cc scheme; regenerate with generate_falcon.py). Body frame:
# +X nose, +Y span, +Z up. Lofted solids: tapered fuselage/wing/stab,
# rounded leading edges.
mtllib falcon_trainer.mtl

v 0.7200 -0.0620 -0.0720
v 0.7200 0.0620 -0.0720
v 0.7200 0.0620 0.0620
v 0.7200 -0.0620 0.0620
v 0.4200 -0.0750 -0.0850
v 0.4200 0.0750 -0.0850
v 0.4200 0.0750 0.0750
v 0.4200 -0.0750 0.0750
v 0.4200 -0.0750 -0.0850
v 0.4200 0.0750 -0.0850
v 0.4200 0.0750 0.0750
v 0.4200 -0.0750 0.0750
v 0.1000 -0.0750 -0.0850
v 0.1000 0.0750 -0.0850
v 0.1000 0.0750 0.0750
v 0.1000 -0.0750 0.0750
v 0.1000 -0.0750 -0.0850
v 0.1000 0.0750 -0.0850
v 0.1000 0.0750 0.0750
v 0.1000 -0.0750 0.0750
v -0.7000 -0.0280 -0.0150
v -0.7000 0.0280 -0.0150
v -0.7000 0.0280 0.0380
v -0.7000 -0.0280 0.0380
v 0.7200 -0.0580 -0.0680
v 0.7520 -0.0580 -0.0680
v 0.7520 0.0580 -0.0680
v 0.7200 0.0580 -0.0680
v 0.7200 -0.0580 0.0480
v 0.7520 -0.0580 0.0480
v 0.7520 0.0580 0.0480
v 0.7200 0.0580 0.0480
v 0.7520 -0.0250 -0.0350
v 0.7750 -0.0250 -0.0350
v 0.7750 0.0250 -0.0350
v 0.7520 0.0250 -0.0350
v 0.7520 -0.0250 0.0150
v 0.7750 -0.0250 0.0150
v 0.7750 0.0250 0.0150
v 0.7520 0.0250 0.0150
v 0.7460 -0.0120 -0.1600
v 0.7580 -0.0120 -0.1600
v 0.7580 0.0120 -0.1600
v 0.7460 0.0120 -0.1600
v 0.7460 -0.0120 0.1400
v 0.7580 -0.0120 0.1400
v 0.7580 0.0120 0.1400
v 0.7460 0.0120 0.1400
v 0.3450 -0.9300 0.1250
v 0.3575 -0.9300 0.1217
v 0.3667 -0.9300 0.1125
v 0.3700 -0.9300 0.1000
v 0.3667 -0.9300 0.0875
v 0.3575 -0.9300 0.0783
v 0.3450 -0.9300 0.0750
v 0.2425 -0.9300 0.0835
v 0.2425 -0.9300 0.1165
v 0.3450 -0.6975 0.1250
v 0.3575 -0.6975 0.1217
v 0.3667 -0.6975 0.1125
v 0.3700 -0.6975 0.1000
v 0.3667 -0.6975 0.0875
v 0.3575 -0.6975 0.0783
v 0.3450 -0.6975 0.0750
v 0.2275 -0.6975 0.0835
v 0.2275 -0.6975 0.1165
v 0.2425 -0.9300 0.1165
v 0.2425 -0.9300 0.0835
v 0.1400 -0.9300 0.0920
v 0.1400 -0.9300 0.1080
v 0.2275 -0.6975 0.1165
v 0.2275 -0.6975 0.0835
v 0.1100 -0.6975 0.0920
v 0.1100 -0.6975 0.1080
v 0.3450 -0.6975 0.1250
v 0.3575 -0.6975 0.1217
v 0.3667 -0.6975 0.1125
v 0.3700 -0.6975 0.1000
v 0.3667 -0.6975 0.0875
v 0.3575 -0.6975 0.0783
v 0.3450 -0.6975 0.0750
v 0.2275 -0.6975 0.0835
v 0.2275 -0.6975 0.1165
v 0.3450 -0.4650 0.1250
v 0.3575 -0.4650 0.1217
v 0.3667 -0.4650 0.1125
v 0.3700 -0.4650 0.1000
v 0.3667 -0.4650 0.0875
v 0.3575 -0.4650 0.0783
v 0.3450 -0.4650 0.0750
v 0.2125 -0.4650 0.0835
v 0.2125 -0.4650 0.1165
v 0.2275 -0.6975 0.1165
v 0.2275 -0.6975 0.0835
v 0.1100 -0.6975 0.0920
v 0.1100 -0.6975 0.1080
v 0.2125 -0.4650 0.1165
v 0.2125 -0.4650 0.0835
v 0.0800 -0.4650 0.0920
v 0.0800 -0.4650 0.1080
v 0.3450 -0.4650 0.1250
v 0.3575 -0.4650 0.1217
v 0.3667 -0.4650 0.1125
v 0.3700 -0.4650 0.1000
v 0.3667 -0.4650 0.0875
v 0.3575 -0.4650 0.0783
v 0.3450 -0.4650 0.0750
v 0.2125 -0.4650 0.0835
v 0.2125 -0.4650 0.1165
v 0.3450 -0.2325 0.1250
v 0.3575 -0.2325 0.1217
v 0.3667 -0.2325 0.1125
v 0.3700 -0.2325 0.1000
v 0.3667 -0.2325 0.0875
v 0.3575 -0.2325 0.0783
v 0.3450 -0.2325 0.0750
v 0.1975 -0.2325 0.0835
v 0.1975 -0.2325 0.1165
v 0.2125 -0.4650 0.1165
v 0.2125 -0.4650 0.0835
v 0.0800 -0.4650 0.0920
v 0.0800 -0.4650 0.1080
v 0.1975 -0.2325 0.1165
v 0.1975 -0.2325 0.0835
v 0.0500 -0.2325 0.0920
v 0.0500 -0.2325 0.1080
v 0.3450 -0.2325 0.1250
v 0.3575 -0.2325 0.1217
v 0.3667 -0.2325 0.1125
v 0.3700 -0.2325 0.1000
v 0.3667 -0.2325 0.0875
v 0.3575 -0.2325 0.0783
v 0.3450 -0.2325 0.0750
v 0.1975 -0.2325 0.0835
v 0.1975 -0.2325 0.1165
v 0.3450 -0.0000 0.1250
v 0.3575 -0.0000 0.1217
v 0.3667 -0.0000 0.1125
v 0.3700 -0.0000 0.1000
v 0.3667 -0.0000 0.0875
v 0.3575 -0.0000 0.0783
v 0.3450 -0.0000 0.0750
v 0.1825 -0.0000 0.0835
v 0.1825 -0.0000 0.1165
v 0.1975 -0.2325 0.1165
v 0.1975 -0.2325 0.0835
v 0.0500 -0.2325 0.0920
v 0.0500 -0.2325 0.1080
v 0.1825 -0.0000 0.1165
v 0.1825 -0.0000 0.0835
v 0.0200 -0.0000 0.0920
v 0.0200 -0.0000 0.1080
v 0.3450 -0.0000 0.1250
v 0.3575 -0.0000 0.1217
v 0.3667 -0.0000 0.1125
v 0.3700 -0.0000 0.1000
v 0.3667 -0.0000 0.0875
v 0.3575 -0.0000 0.0783
v 0.3450 -0.0000 0.0750
v 0.1825 -0.0000 0.0835
v 0.1825 -0.0000 0.1165
v 0.3450 0.2325 0.1250
v 0.3575 0.2325 0.1217
v 0.3667 0.2325 0.1125
v 0.3700 0.2325 0.1000
v 0.3667 0.2325 0.0875
v 0.3575 0.2325 0.0783
v 0.3450 0.2325 0.0750
v 0.1975 0.2325 0.0835
v 0.1975 0.2325 0.1165
v 0.1825 -0.0000 0.1165
v 0.1825 -0.0000 0.0835
v 0.0200 -0.0000 0.0920
v 0.0200 -0.0000 0.1080
v 0.1975 0.2325 0.1165
v 0.1975 0.2325 0.0835
v 0.0500 0.2325 0.0920
v 0.0500 0.2325 0.1080
v 0.3450 0.2325 0.1250
v 0.3575 0.2325 0.1217
v 0.3667 0.2325 0.1125
v 0.3700 0.2325 0.1000
v 0.3667 0.2325 0.0875
v 0.3575 0.2325 0.0783
v 0.3450 0.2325 0.0750
v 0.1975 0.2325 0.0835
v 0.1975 0.2325 0.1165
v 0.3450 0.4650 0.1250
v 0.3575 0.4650 0.1217
v 0.3667 0.4650 0.1125
v 0.3700 0.4650 0.1000
v 0.3667 0.4650 0.0875
v 0.3575 0.4650 0.0783
v 0.3450 0.4650 0.0750
v 0.2125 0.4650 0.0835
v 0.2125 0.4650 0.1165
v 0.1975 0.2325 0.1165
v 0.1975 0.2325 0.0835
v 0.0500 0.2325 0.0920
v 0.0500 0.2325 0.1080
v 0.2125 0.4650 0.1165
v 0.2125 0.4650 0.0835
v 0.0800 0.4650 0.0920
v 0.0800 0.4650 0.1080
v 0.3450 0.4650 0.1250
v 0.3575 0.4650 0.1217
v 0.3667 0.4650 0.1125
v 0.3700 0.4650 0.1000
v 0.3667 0.4650 0.0875
v 0.3575 0.4650 0.0783
v 0.3450 0.4650 0.0750
v 0.2125 0.4650 0.0835
v 0.2125 0.4650 0.1165
v 0.3450 0.6975 0.1250
v 0.3575 0.6975 0.1217
v 0.3667 0.6975 0.1125
v 0.3700 0.6975 0.1000
v 0.3667 0.6975 0.0875
v 0.3575 0.6975 0.0783
v 0.3450 0.6975 0.0750
v 0.2275 0.6975 0.0835
v 0.2275 0.6975 0.1165
v 0.2125 0.4650 0.1165
v 0.2125 0.4650 0.0835
v 0.0800 0.4650 0.0920
v 0.0800 0.4650 0.1080
v 0.2275 0.6975 0.1165
v 0.2275 0.6975 0.0835
v 0.1100 0.6975 0.0920
v 0.1100 0.6975 0.1080
v 0.3450 0.6975 0.1250
v 0.3575 0.6975 0.1217
v 0.3667 0.6975 0.1125
v 0.3700 0.6975 0.1000
v 0.3667 0.6975 0.0875
v 0.3575 0.6975 0.0783
v 0.3450 0.6975 0.0750
v 0.2275 0.6975 0.0835
v 0.2275 0.6975 0.1165
v 0.3450 0.9300 0.1250
v 0.3575 0.9300 0.1217
v 0.3667 0.9300 0.1125
v 0.3700 0.9300 0.1000
v 0.3667 0.9300 0.0875
v 0.3575 0.9300 0.0783
v 0.3450 0.9300 0.0750
v 0.2425 0.9300 0.0835
v 0.2425 0.9300 0.1165
v 0.2275 0.6975 0.1165
v 0.2275 0.6975 0.0835
v 0.1100 0.6975 0.0920
v 0.1100 0.6975 0.1080
v 0.2425 0.9300 0.1165
v 0.2425 0.9300 0.0835
v 0.1400 0.9300 0.0920
v 0.1400 0.9300 0.1080
v -0.7150 -0.3350 0.0075
v -0.7150 -0.3350 0.0175
v -0.6010 -0.3350 0.0285
v -0.5930 -0.3350 0.0264
v -0.5871 -0.3350 0.0205
v -0.5850 -0.3350 0.0125
v -0.5871 -0.3350 0.0045
v -0.5930 -0.3350 -0.0014
v -0.6010 -0.3350 -0.0035
v -0.7450 -0.1675 0.0075
v -0.7450 -0.1675 0.0175
v -0.6010 -0.1675 0.0285
v -0.5930 -0.1675 0.0264
v -0.5871 -0.1675 0.0205
v -0.5850 -0.1675 0.0125
v -0.5871 -0.1675 0.0045
v -0.5930 -0.1675 -0.0014
v -0.6010 -0.1675 -0.0035
v -0.7450 -0.1675 0.0075
v -0.7450 -0.1675 0.0175
v -0.6010 -0.1675 0.0285
v -0.5930 -0.1675 0.0264
v -0.5871 -0.1675 0.0205
v -0.5850 -0.1675 0.0125
v -0.5871 -0.1675 0.0045
v -0.5930 -0.1675 -0.0014
v -0.6010 -0.1675 -0.0035
v -0.7750 -0.0000 0.0075
v -0.7750 -0.0000 0.0175
v -0.6010 -0.0000 0.0285
v -0.5930 -0.0000 0.0264
v -0.5871 -0.0000 0.0205
v -0.5850 -0.0000 0.0125
v -0.5871 -0.0000 0.0045
v -0.5930 -0.0000 -0.0014
v -0.6010 -0.0000 -0.0035
v -0.7750 -0.0000 0.0075
v -0.7750 -0.0000 0.0175
v -0.6010 -0.0000 0.0285
v -0.5930 -0.0000 0.0264
v -0.5871 -0.0000 0.0205
v -0.5850 -0.0000 0.0125
v -0.5871 -0.0000 0.0045
v -0.5930 -0.0000 -0.0014
v -0.6010 -0.0000 -0.0035
v -0.7450 0.1675 0.0075
v -0.7450 0.1675 0.0175
v -0.6010 0.1675 0.0285
v -0.5930 0.1675 0.0264
v -0.5871 0.1675 0.0205
v -0.5850 0.1675 0.0125
v -0.5871 0.1675 0.0045
v -0.5930 0.1675 -0.0014
v -0.6010 0.1675 -0.0035
v -0.7450 0.1675 0.0075
v -0.7450 0.1675 0.0175
v -0.6010 0.1675 0.0285
v -0.5930 0.1675 0.0264
v -0.5871 0.1675 0.0205
v -0.5850 0.1675 0.0125
v -0.5871 0.1675 0.0045
v -0.5930 0.1675 -0.0014
v -0.6010 0.1675 -0.0035
v -0.7150 0.3350 0.0075
v -0.7150 0.3350 0.0175
v -0.6010 0.3350 0.0285
v -0.5930 0.3350 0.0264
v -0.5871 0.3350 0.0205
v -0.5850 0.3350 0.0125
v -0.5871 0.3350 0.0045
v -0.5930 0.3350 -0.0014
v -0.6010 0.3350 -0.0035
v -0.7750 -0.0050 0.0300
v -0.7750 0.0050 0.0300
v -0.5990 0.0140 0.0300
v -0.5920 0.0121 0.0300
v -0.5869 0.0070 0.0300
v -0.5850 -0.0000 0.0300
v -0.5869 -0.0070 0.0300
v -0.5920 -0.0121 0.0300
v -0.5990 -0.0140 0.0300
v -0.7750 -0.0050 0.1550
v -0.7750 0.0050 0.1550
v -0.6388 0.0140 0.1550
v -0.6318 0.0121 0.1550
v -0.6266 0.0070 0.1550
v -0.6248 -0.0000 0.1550
v -0.6266 -0.0070 0.1550
v -0.6318 -0.0121 0.1550
v -0.6388 -0.0140 0.1550
v -0.7750 -0.0050 0.1550
v -0.7750 0.0050 0.1550
v -0.6388 0.0140 0.1550
v -0.6318 0.0121 0.1550
v -0.6266 0.0070 0.1550
v -0.6248 -0.0000 0.1550
v -0.6266 -0.0070 0.1550
v -0.6318 -0.0121 0.1550
v -0.6388 -0.0140 0.1550
v -0.7750 -0.0050 0.2500
v -0.7750 0.0050 0.2500
v -0.6690 0.0140 0.2500
v -0.6620 0.0121 0.2500
v -0.6569 0.0070 0.2500
v -0.6550 -0.0000 0.2500
v -0.6569 -0.0070 0.2500
v -0.6620 -0.0121 0.2500
v -0.6690 -0.0140 0.2500
v 0.2400 -0.1800 -0.1850
v 0.2800 -0.1800 -0.1850
v 0.2800 -0.1400 -0.1850
v 0.2400 -0.1400 -0.1850
v 0.2400 -0.1800 -0.0850
v 0.2800 -0.1800 -0.0850
v 0.2800 -0.1400 -0.0850
v 0.2400 -0.1400 -0.0850
v 0.3250 -0.2180 -0.1850
v 0.3163 -0.2180 -0.1525
v 0.2925 -0.2180 -0.1287
v 0.2600 -0.2180 -0.1200
v 0.2275 -0.2180 -0.1287
v 0.2037 -0.2180 -0.1525
v 0.1950 -0.2180 -0.1850
v 0.2037 -0.2180 -0.2175
v 0.2275 -0.2180 -0.2413
v 0.2600 -0.2180 -0.2500
v 0.2925 -0.2180 -0.2413
v 0.3163 -0.2180 -0.2175
v 0.3250 -0.1820 -0.1850
v 0.3163 -0.1820 -0.1525
v 0.2925 -0.1820 -0.1287
v 0.2600 -0.1820 -0.1200
v 0.2275 -0.1820 -0.1287
v 0.2037 -0.1820 -0.1525
v 0.1950 -0.1820 -0.1850
v 0.2037 -0.1820 -0.2175
v 0.2275 -0.1820 -0.2413
v 0.2600 -0.1820 -0.2500
v 0.2925 -0.1820 -0.2413
v 0.3163 -0.1820 -0.2175
v 0.2400 0.1400 -0.1850
v 0.2800 0.1400 -0.1850
v 0.2800 0.1800 -0.1850
v 0.2400 0.1800 -0.1850
v 0.2400 0.1400 -0.0850
v 0.2800 0.1400 -0.0850
v 0.2800 0.1800 -0.0850
v 0.2400 0.1800 -0.0850
v 0.3250 0.1820 -0.1850
v 0.3163 0.1820 -0.1525
v 0.2925 0.1820 -0.1287
v 0.2600 0.1820 -0.1200
v 0.2275 0.1820 -0.1287
v 0.2037 0.1820 -0.1525
v 0.1950 0.1820 -0.1850
v 0.2037 0.1820 -0.2175
v 0.2275 0.1820 -0.2413
v 0.2600 0.1820 -0.2500
v 0.2925 0.1820 -0.2413
v 0.3163 0.1820 -0.2175
v 0.3250 0.2180 -0.1850
v 0.3163 0.2180 -0.1525
v 0.2925 0.2180 -0.1287
v 0.2600 0.2180 -0.1200
v 0.2275 0.2180 -0.1287
v 0.2037 0.2180 -0.1525
v 0.1950 0.2180 -0.1850
v 0.2037 0.2180 -0.2175
v 0.2275 0.2180 -0.2413
v 0.2600 0.2180 -0.2500
v 0.2925 0.2180 -0.2413
v 0.3163 0.2180 -0.2175
v -0.6900 -0.0120 -0.1250
v -0.6700 -0.0120 -0.1250
v -0.6700 0.0120 -0.1250
v -0.6900 0.0120 -0.1250
v -0.6900 -0.0120 -0.0000
v -0.6700 -0.0120 -0.0000
v -0.6700 0.0120 -0.0000
v -0.6900 0.0120 -0.0000
v -0.6500 -0.0100 -0.1400
v -0.6540 -0.0100 -0.1250
v -0.6650 -0.0100 -0.1140
v -0.6800 -0.0100 -0.1100
v -0.6950 -0.0100 -0.1140
v -0.7060 -0.0100 -0.1250
v -0.7100 -0.0100 -0.1400
v -0.7060 -0.0100 -0.1550
v -0.6950 -0.0100 -0.1660
v -0.6800 -0.0100 -0.1700
v -0.6650 -0.0100 -0.1660
v -0.6540 -0.0100 -0.1550
v -0.6500 0.0100 -0.1400
v -0.6540 0.0100 -0.1250
v -0.6650 0.0100 -0.1140
v -0.6800 0.0100 -0.1100
v -0.6950 0.0100 -0.1140
v -0.7060 0.0100 -0.1250
v -0.7100 0.0100 -0.1400
v -0.7060 0.0100 -0.1550
v -0.6950 0.0100 -0.1660
v -0.6800 0.0100 -0.1700
v -0.6650 0.0100 -0.1660
v -0.6540 0.0100 -0.1550
vn 1.0000 0.0000 0.0000
vn -1.0000 0.0000 0.0000
vn 0.0433 0.0000 -0.9991
vn 0.0433 0.9991 -0.0000
vn 0.0433 0.0000 0.9991
vn 0.0433 -0.9991 0.0000
vn 1.0000 0.0000 0.0000
vn -1.0000 0.0000 0.0000
vn 0.0000 0.0000 -1.0000
vn 0.0000 1.0000 0.0000
vn 0.0000 0.0000 1.0000
vn 0.0000 -1.0000 0.0000
vn 1.0000 0.0000 0.0000
vn -1.0000 0.0000 0.0000
vn -0.0872 0.0000 -0.9962
vn -0.0586 0.9983 0.0000
vn -0.0462 0.0000 0.9989
vn -0.0586 -0.9983 -0.0000
vn 0.0000 0.0000 -1.0000
vn 0.0000 0.0000 1.0000
vn 0.0000 -1.0000 0.0000
vn 0.0000 1.0000 0.0000
vn 1.0000 0.0000 0.0000
vn -1.0000 0.0000 0.0000
vn 0.0000 0.0000 -1.0000
vn 0.0000 0.0000 1.0000
vn 0.0000 -1.0000 0.0000
vn 0.0000 1.0000 0.0000
vn 1.0000 0.0000 0.0000
vn -1.0000 0.0000 0.0000
vn 0.0000 0.0000 -1.0000
vn 0.0000 0.0000 1.0000
vn 0.0000 -1.0000 0.0000
vn 0.0000 1.0000 0.0000
vn 1.0000 0.0000 0.0000
vn -1.0000 0.0000 0.0000
vn 0.0000 -1.0000 0.0000
vn 0.0000 1.0000 0.0000
vn 0.2588 0.0000 0.9659
vn 0.7071 0.0000 0.7071
vn 0.9659 0.0000 0.2588
vn 0.9659 0.0000 -0.2588
vn 0.7071 0.0000 -0.7071
vn 0.2588 0.0000 -0.9659
vn -0.0826 -0.0053 -0.9966
vn -0.9979 -0.0644 0.0000
vn -0.0826 0.0000 0.9966
vn 0.0000 -1.0000 0.0000
vn 0.0000 1.0000 0.0000
vn 0.9979 0.0644 0.0000
vn -0.0826 -0.0107 -0.9965
vn -0.9918 -0.1280 0.0000
vn -0.0826 -0.0053 0.9966
vn 0.0000 -1.0000 0.0000
vn 0.0000 1.0000 0.0000
vn 0.2588 0.0000 0.9659
vn 0.7071 0.0000 0.7071
vn 0.9659 0.0000 0.2588
vn 0.9659 0.0000 -0.2588
vn 0.7071 0.0000 -0.7071
vn 0.2588 0.0000 -0.9659
vn -0.0722 -0.0047 -0.9974
vn -0.9979 -0.0644 0.0000
vn -0.0722 0.0000 0.9974
vn 0.0000 -1.0000 0.0000
vn 0.0000 1.0000 0.0000
vn 0.9979 0.0644 0.0000
vn -0.0721 -0.0093 -0.9974
vn -0.9918 -0.1280 0.0000
vn -0.0722 -0.0047 0.9974
vn 0.0000 -1.0000 0.0000
vn 0.0000 1.0000 0.0000
vn 0.2588 0.0000 0.9659
vn 0.7071 0.0000 0.7071
vn 0.9659 0.0000 0.2588
vn 0.9659 0.0000 -0.2588
vn 0.7071 0.0000 -0.7071
vn 0.2588 0.0000 -0.9659
vn -0.0640 -0.0041 -0.9979
vn -0.9979 -0.0644 0.0000
vn -0.0640 0.0000 0.9979
vn 0.0000 -1.0000 0.0000
vn 0.0000 1.0000 0.0000
vn 0.9979 0.0644 0.0000
vn -0.0640 -0.0083 -0.9979
vn -0.9918 -0.1280 0.0000
vn -0.0640 -0.0041 0.9979
vn 0.0000 -1.0000 0.0000
vn 0.0000 1.0000 0.0000
vn 0.2588 0.0000 0.9659
vn 0.7071 0.0000 0.7071
vn 0.9659 0.0000 0.2588
vn 0.9659 0.0000 -0.2588
vn 0.7071 0.0000 -0.7071
vn 0.2588 0.0000 -0.9659
vn -0.0575 -0.0037 -0.9983
vn -0.9979 -0.0644 0.0000
vn -0.0575 0.0000 0.9983
vn 0.0000 -1.0000 0.0000
vn 0.0000 1.0000 0.0000
vn 0.9979 0.0644 0.0000
vn -0.0575 -0.0074 -0.9983
vn -0.9918 -0.1280 0.0000
vn -0.0575 -0.0037 0.9983
vn 0.0000 -1.0000 0.0000
vn 0.0000 1.0000 0.0000
vn 0.2588 0.0000 0.9659
vn 0.7071 0.0000 0.7071
vn 0.9659 0.0000 0.2588
vn 0.9659 0.0000 -0.2588
vn 0.7071 0.0000 -0.7071
vn 0.2588 0.0000 -0.9659
vn -0.0522 0.0034 -0.9986
vn -0.9979 0.0644 0.0000
vn -0.0522 0.0000 0.9986
vn 0.0000 -1.0000 0.0000
vn 0.0000 1.0000 0.0000
vn 0.9979 -0.0644 0.0000
vn -0.0522 0.0067 -0.9986
vn -0.9918 0.1280 0.0000
vn -0.0522 0.0034 0.9986
vn 0.0000 -1.0000 0.0000
vn 0.0000 1.0000 0.0000
vn 0.2588 0.0000 0.9659
vn 0.7071 0.0000 0.7071
vn 0.9659 0.0000 0.2588
vn 0.9659 0.0000 -0.2588
vn 0.7071 0.0000 -0.7071
vn 0.2588 0.0000 -0.9659
vn -0.0575 0.0037 -0.9983
vn -0.9979 0.0644 0.0000
vn -0.0575 0.0000 0.9983
vn 0.0000 -1.0000 0.0000
vn 0.0000 1.0000 0.0000
vn 0.9979 -0.0644 0.0000
vn -0.0575 0.0074 -0.9983
vn -0.9918 0.1280 0.0000
vn -0.0575 0.0037 0.9983
vn 0.0000 -1.0000 0.0000
vn 0.0000 1.0000 0.0000
vn 0.2588 0.0000 0.9659
vn 0.7071 0.0000 0.7071
vn 0.9659 0.0000 0.2588
vn 0.9659 0.0000 -0.2588
vn 0.7071 0.0000 -0.7071
vn 0.2588 0.0000 -0.9659
vn -0.0640 0.0041 -0.9979
vn -0.9979 0.0644 0.0000
vn -0.0640 0.0000 0.9979
vn 0.0000 -1.0000 0.0000
vn 0.0000 1.0000 0.0000
vn 0.9979 -0.0644 0.0000
vn -0.0640 0.0083 -0.9979
vn -0.9918 0.1280 0.0000
vn -0.0640 0.0041 0.9979
vn 0.0000 -1.0000 0.0000
vn 0.0000 1.0000 0.0000
vn 0.2588 0.0000 0.9659
vn 0.7071 0.0000 0.7071
vn 0.9659 0.0000 0.2588
vn 0.9659 0.0000 -0.2588
vn 0.7071 0.0000 -0.7071
vn 0.2588 0.0000 -0.9659
vn -0.0722 0.0047 -0.9974
vn -0.9979 0.0644 0.0000
vn -0.0722 0.0000 0.9974
vn 0.0000 -1.0000 0.0000
vn 0.0000 1.0000 0.0000
vn 0.9979 -0.0644 0.0000
vn -0.0721 0.0093 -0.9974
vn -0.9918 0.1280 0.0000
vn -0.0722 0.0047 0.9974
vn 0.0000 -1.0000 0.0000
vn 0.0000 1.0000 0.0000
vn -0.9843 -0.1763 0.0000
vn -0.0960 0.0000 0.9954
vn 0.2588 0.0000 0.9659
vn 0.7071 0.0000 0.7071
vn 0.9659 0.0000 0.2588
vn 0.9659 0.0000 -0.2588
vn 0.7071 0.0000 -0.7071
vn 0.2588 0.0000 -0.9659
vn -0.0960 -0.0172 -0.9952
vn 0.0000 -1.0000 0.0000
vn 0.0000 1.0000 0.0000
vn -0.9843 -0.1763 0.0000
vn -0.0762 0.0000 0.9971
vn 0.2588 0.0000 0.9659
vn 0.7071 0.0000 0.7071
vn 0.9659 0.0000 0.2588
vn 0.9659 0.0000 -0.2588
vn 0.7071 0.0000 -0.7071
vn 0.2588 0.0000 -0.9659
vn -0.0762 -0.0136 -0.9970
vn 0.0000 -1.0000 0.0000
vn 0.0000 1.0000 0.0000
vn -0.9843 0.1763 0.0000
vn -0.0631 0.0000 0.9980
vn 0.2588 0.0000 0.9659
vn 0.7071 0.0000 0.7071
vn 0.9659 0.0000 0.2588
vn 0.9659 0.0000 -0.2588
vn 0.7071 0.0000 -0.7071
vn 0.2588 0.0000 -0.9659
vn -0.0631 0.0113 -0.9979
vn 0.0000 -1.0000 0.0000
vn 0.0000 1.0000 0.0000
vn -0.9843 0.1763 0.0000
vn -0.0762 0.0000 0.9971
vn 0.2588 0.0000 0.9659
vn 0.7071 0.0000 0.7071
vn 0.9659 0.0000 0.2588
vn 0.9659 0.0000 -0.2588
vn 0.7071 0.0000 -0.7071
vn 0.2588 0.0000 -0.9659
vn -0.0762 0.0136 -0.9970
vn 0.0000 0.0000 -1.0000
vn 0.0000 0.0000 1.0000
vn -1.0000 0.0000 0.0000
vn -0.0659 0.9976 -0.0210
vn 0.2579 0.9627 0.0821
vn 0.6899 0.6899 0.2195
vn 0.9233 0.2474 0.2938
vn 0.9233 -0.2474 0.2938
vn 0.6899 -0.6899 0.2195
vn 0.2579 -0.9627 0.0821
vn -0.0659 -0.9978 0.0000
vn 0.0000 0.0000 -1.0000
vn 0.0000 0.0000 1.0000
vn -1.0000 0.0000 -0.0000
vn -0.0846 0.9961 -0.0269
vn 0.2579 0.9627 0.0821
vn 0.6899 0.6899 0.2195
vn 0.9233 0.2474 0.2938
vn 0.9233 -0.2474 0.2938
vn 0.6899 -0.6899 0.2195
vn 0.2579 -0.9627 0.0821
vn -0.0846 -0.9964 -0.0000
vn 0.0000 0.0000 -1.0000
vn 0.0000 0.0000 1.0000
vn 0.0000 -1.0000 0.0000
vn 0.0000 1.0000 0.0000
vn 1.0000 0.0000 0.0000
vn -1.0000 0.0000 0.0000
vn 0.0000 -1.0000 0.0000
vn 0.0000 1.0000 0.0000
vn 0.9659 0.0000 0.2588
vn 0.7071 0.0000 0.7071
vn 0.2588 0.0000 0.9659
vn -0.2588 0.0000 0.9659
vn -0.7071 0.0000 0.7071
vn -0.9659 0.0000 0.2588
vn -0.9659 0.0000 -0.2588
vn -0.7071 0.0000 -0.7071
vn -0.2588 0.0000 -0.9659
vn 0.2588 0.0000 -0.9659
vn 0.7071 0.0000 -0.7071
vn 0.9659 0.0000 -0.2588
vn 0.0000 0.0000 -1.0000
vn 0.0000 0.0000 1.0000
vn 0.0000 -1.0000 0.0000
vn 0.0000 1.0000 0.0000
vn 1.0000 0.0000 0.0000
vn -1.0000 0.0000 0.0000
vn 0.0000 -1.0000 0.0000
vn 0.0000 1.0000 0.0000
vn 0.9659 0.0000 0.2588
vn 0.7071 0.0000 0.7071
vn 0.2588 0.0000 0.9659
vn -0.2588 0.0000 0.9659
vn -0.7071 0.0000 0.7071
vn -0.9659 0.0000 0.2588
vn -0.9659 0.0000 -0.2588
vn -0.7071 0.0000 -0.7071
vn -0.2588 0.0000 -0.9659
vn 0.2588 0.0000 -0.9659
vn 0.7071 0.0000 -0.7071
vn 0.9659 0.0000 -0.2588
vn 0.0000 0.0000 -1.0000
vn 0.0000 0.0000 1.0000
vn 0.0000 -1.0000 0.0000
vn 0.0000 1.0000 0.0000
vn 1.0000 0.0000 0.0000
vn -1.0000 0.0000 0.0000
vn 0.0000 -1.0000 0.0000
vn 0.0000 1.0000 0.0000
vn 0.9659 0.0000 0.2588
vn 0.7071 0.0000 0.7071
vn 0.2588 0.0000 0.9659
vn -0.2588 0.0000 0.9659
vn -0.7071 0.0000 0.7071
vn -0.9659 0.0000 0.2588
vn -0.9659 0.0000 -0.2588
vn -0.7071 0.0000 -0.7071
vn -0.2588 0.0000 -0.9659
vn 0.2588 0.0000 -0.9659
vn 0.7071 0.0000 -0.7071
vn 0.9659 0.0000 -0.2588
usemtl red
f 1//1 2//1 3//1 4//1
f 8//2 7//2 6//2 5//2
f 5//3 6//3 2//3 1//3
f 6//4 7//4 3//4 2//4
f 7//5 8//5 4//5 3//5
f 8//6 5//6 1//6 4//6
f 9//7 10//7 11//7 12//7
f 16//8 15//8 14//8 13//8
f 13//9 14//9 10//9 9//9
f 14//10 15//10 11//10 10//10
f 15//11 16//11 12//11 11//11
f 16//12 13//12 9//12 12//12
f 17//13 18//13 19//13 20//13
f 24//14 23//14 22//14 21//14
f 21//15 22//15 18//15 17//15
f 22//16 23//16 19//16 18//16
f 23//17 24//17 20//17 19//17
f 24//18 21//18 17//18 20//18
f 57//37 56//37 55//37 54//37 53//37 52//37 51//37 50//37 49//37
f 58//38 59//38 60//38 61//38 62//38 63//38 64//38 65//38 66//38
f 49//39 50//39 59//39 58//39
f 50//40 51//40 60//40 59//40
f 51//41 52//41 61//41 60//41
f 52//42 53//42 62//42 61//42
f 53//43 54//43 63//43 62//43
f 54//44 55//44 64//44 63//44
f 55//45 56//45 65//45 64//45
f 56//46 57//46 66//46 65//46
f 57//47 49//47 58//47 66//47
f 96//65 95//65 94//65 93//65
f 97//66 98//66 99//66 100//66
f 93//67 94//67 98//67 97//67
f 94//68 95//68 99//68 98//68
f 95//69 96//69 100//69 99//69
f 96//70 93//70 97//70 100//70
f 109//71 108//71 107//71 106//71 105//71 104//71 103//71 102//71 101//71
f 110//72 111//72 112//72 113//72 114//72 115//72 116//72 117//72 118//72
f 101//73 102//73 111//73 110//73
f 102//74 103//74 112//74 111//74
f 103//75 104//75 113//75 112//75
f 104//76 105//76 114//76 113//76
f 105//77 106//77 115//77 114//77
f 106//78 107//78 116//78 115//78
f 107//79 108//79 117//79 116//79
f 108//80 109//80 118//80 117//80
f 109//81 101//81 110//81 118//81
f 148//99 147//99 146//99 145//99
f 149//100 150//100 151//100 152//100
f 145//101 146//101 150//101 149//101
f 146//102 147//102 151//102 150//102
f 147//103 148//103 152//103 151//103
f 148//104 145//104 149//104 152//104
f 161//105 160//105 159//105 158//105 157//105 156//105 155//105 154//105 153//105
f 162//106 163//106 164//106 165//106 166//106 167//106 168//106 169//106 170//106
f 153//107 154//107 163//107 162//107
f 154//108 155//108 164//108 163//108
f 155//109 156//109 165//109 164//109
f 156//110 157//110 166//110 165//110
f 157//111 158//111 167//111 166//111
f 158//112 159//112 168//112 167//112
f 159//113 160//113 169//113 168//113
f 160//114 161//114 170//114 169//114
f 161//115 153//115 162//115 170//115
f 200//133 199//133 198//133 197//133
f 201//134 202//134 203//134 204//134
f 197//135 198//135 202//135 201//135
f 198//136 199//136 203//136 202//136
f 199//137 200//137 204//137 203//137
f 200//138 197//138 201//138 204//138
f 213//139 212//139 211//139 210//139 209//139 208//139 207//139 206//139 205//139
f 214//140 215//140 216//140 217//140 218//140 219//140 220//140 221//140 222//140
f 205//141 206//141 215//141 214//141
f 206//142 207//142 216//142 215//142
f 207//143 208//143 217//143 216//143
f 208//144 209//144 218//144 217//144
f 209//145 210//145 219//145 218//145
f 210//146 211//146 220//146 219//146
f 211//147 212//147 221//147 220//147
f 212//148 213//148 222//148 221//148
f 213//149 205//149 214//149 222//149
f 252//167 251//167 250//167 249//167
f 253//168 254//168 255//168 256//168
f 249//169 250//169 254//169 253//169
f 250//170 251//170 255//170 254//170
f 251//171 252//171 256//171 255//171
f 252//172 249//172 253//172 256//172
f 265//173 264//173 263//173 262//173 261//173 260//173 259//173 258//173 257//173
f 266//174 267//174 268//174 269//174 270//174 271//174 272//174 273//174 274//174
f 257//175 258//175 267//175 266//175
f 258//176 259//176 268//176 267//176
f 259//177 260//177 269//177 268//177
f 260//178 261//178 270//178 269//178
f 261//179 262//179 271//179 270//179
f 262//180 263//180 272//180 271//180
f 263//181 264//181 273//181 272//181
f 264//182 265//182 274//182 273//182
f 265//183 257//183 266//183 274//183
f 301//195 300//195 299//195 298//195 297//195 296//195 295//195 294//195 293//195
f 302//196 303//196 304//196 305//196 306//196 307//196 308//196 309//196 310//196
f 293//197 294//197 303//197 302//197
f 294//198 295//198 304//198 303//198
f 295//199 296//199 305//199 304//199
f 296//200 297//200 306//200 305//200
f 297//201 298//201 307//201 306//201
f 298//202 299//202 308//202 307//202
f 299//203 300//203 309//203 308//203
f 300//204 301//204 310//204 309//204
f 301//205 293//205 302//205 310//205
f 329//217 330//217 331//217 332//217 333//217 334//217 335//217 336//217 337//217
f 346//218 345//218 344//218 343//218 342//218 341//218 340//218 339//218 338//218
f 338//219 339//219 330//219 329//219
f 339//220 340//220 331//220 330//220
f 340//221 341//221 332//221 331//221
f 341//222 342//222 333//222 332//222
f 342//223 343//223 334//223 333//223
f 343//224 344//224 335//224 334//224
f 344//225 345//225 336//225 335//225
f 345//226 346//226 337//226 336//226
f 346//227 338//227 329//227 337//227
usemtl black
f 25//19 28//19 27//19 26//19
f 29//20 30//20 31//20 32//20
f 25//21 26//21 30//21 29//21
f 28//22 32//22 31//22 27//22
f 26//23 27//23 31//23 30//23
f 25//24 29//24 32//24 28//24
f 33//25 36//25 35//25 34//25
f 37//26 38//26 39//26 40//26
f 33//27 34//27 38//27 37//27
f 36//28 40//28 39//28 35//28
f 34//29 35//29 39//29 38//29
f 33//30 37//30 40//30 36//30
f 41//31 44//31 43//31 42//31
f 45//32 46//32 47//32 48//32
f 41//33 42//33 46//33 45//33
f 44//34 48//34 47//34 43//34
f 42//35 43//35 47//35 46//35
f 41//36 45//36 48//36 44//36
f 70//48 69//48 68//48 67//48
f 71//49 72//49 73//49 74//49
f 67//50 68//50 72//50 71//50
f 68//51 69//51 73//51 72//51
f 69//52 70//52 74//52 73//52
f 70//53 67//53 71//53 74//53
f 83//54 82//54 81//54 80//54 79//54 78//54 77//54 76//54 75//54
f 84//55 85//55 86//55 87//55 88//55 89//55 90//55 91//55 92//55
f 75//56 76//56 85//56 84//56
f 76//57 77//57 86//57 85//57
f 77//58 78//58 87//58 86//58
f 78//59 79//59 88//59 87//59
f 79//60 80//60 89//60 88//60
f 80//61 81//61 90//61 89//61
f 81//62 82//62 91//62 90//62
f 82//63 83//63 92//63 91//63
f 83//64 75//64 84//64 92//64
f 122//82 121//82 120//82 119//82
f 123//83 124//83 125//83 126//83
f 119//84 120//84 124//84 123//84
f 120//85 121//85 125//85 124//85
f 121//86 122//86 126//86 125//86
f 122//87 119//87 123//87 126//87
f 135//88 134//88 133//88 132//88 131//88 130//88 129//88 128//88 127//88
f 136//89 137//89 138//89 139//89 140//89 141//89 142//89 143//89 144//89
f 127//90 128//90 137//90 136//90
f 128//91 129//91 138//91 137//91
f 129//92 130//92 139//92 138//92
f 130//93 131//93 140//93 139//93
f 131//94 132//94 141//94 140//94
f 132//95 133//95 142//95 141//95
f 133//96 134//96 143//96 142//96
f 134//97 135//97 144//97 143//97
f 135//98 127//98 136//98 144//98
f 174//116 173//116 172//116 171//116
f 175//117 176//117 177//117 178//117
f 171//118 172//118 176//118 175//118
f 172//119 173//119 177//119 176//119
f 173//120 174//120 178//120 177//120
f 174//121 171//121 175//121 178//121
f 187//122 186//122 185//122 184//122 183//122 182//122 181//122 180//122 179//122
f 188//123 189//123 190//123 191//123 192//123 193//123 194//123 195//123 196//123
f 179//124 180//124 189//124 188//124
f 180//125 181//125 190//125 189//125
f 181//126 182//126 191//126 190//126
f 182//127 183//127 192//127 191//127
f 183//128 184//128 193//128 192//128
f 184//129 185//129 194//129 193//129
f 185//130 186//130 195//130 194//130
f 186//131 187//131 196//131 195//131
f 187//132 179//132 188//132 196//132
f 226//150 225//150 224//150 223//150
f 227//151 228//151 229//151 230//151
f 223//152 224//152 228//152 227//152
f 224//153 225//153 229//153 228//153
f 225//154 226//154 230//154 229//154
f 226//155 223//155 227//155 230//155
f 239//156 238//156 237//156 236//156 235//156 234//156 233//156 232//156 231//156
f 240//157 241//157 242//157 243//157 244//157 245//157 246//157 247//157 248//157
f 231//158 232//158 241//158 240//158
f 232//159 233//159 242//159 241//159
f 233//160 234//160 243//160 242//160
f 234//161 235//161 244//161 243//161
f 235//162 236//162 245//162 244//162
f 236//163 237//163 246//163 245//163
f 237//164 238//164 247//164 246//164
f 238//165 239//165 248//165 247//165
f 239//166 231//166 240//166 248//166
f 283//184 282//184 281//184 280//184 279//184 278//184 277//184 276//184 275//184
f 284//185 285//185 286//185 287//185 288//185 289//185 290//185 291//185 292//185
f 275//186 276//186 285//186 284//186
f 276//187 277//187 286//187 285//187
f 277//188 278//188 287//188 286//188
f 278//189 279//189 288//189 287//189
f 279//190 280//190 289//190 288//190
f 280//191 281//191 290//191 289//191
f 281//192 282//192 291//192 290//192
f 282//193 283//193 292//193 291//193
f 283//194 275//194 284//194 292//194
f 319//206 318//206 317//206 316//206 315//206 314//206 313//206 312//206 311//206
f 320//207 321//207 322//207 323//207 324//207 325//207 326//207 327//207 328//207
f 311//208 312//208 321//208 320//208
f 312//209 313//209 322//209 321//209
f 313//210 314//210 323//210 322//210
f 314//211 315//211 324//211 323//211
f 315//212 316//212 325//212 324//212
f 316//213 317//213 326//213 325//213
f 317//214 318//214 327//214 326//214
f 318//215 319//215 328//215 327//215
f 319//216 311//216 320//216 328//216
f 347//228 348//228 349//228 350//228 351//228 352//228 353//228 354//228 355//228
f 364//229 363//229 362//229 361//229 360//229 359//229 358//229 357//229 356//229
f 356//230 357//230 348//230 347//230
f 357//231 358//231 349//231 348//231
f 358//232 359//232 350//232 349//232
f 359//233 360//233 351//233 350//233
f 360//234 361//234 352//234 351//234
f 361//235 362//235 353//235 352//235
f 362//236 363//236 354//236 353//236
f 363//237 364//237 355//237 354//237
f 364//238 356//238 347//238 355//238
f 373//245 374//245 375//245 376//245 377//245 378//245 379//245 380//245 381//245 382//245 383//245 384//245
f 396//246 395//246 394//246 393//246 392//246 391//246 390//246 389//246 388//246 387//246 386//246 385//246
f 385//247 386//247 374//247 373//247
f 386//248 387//248 375//248 374//248
f 387//249 388//249 376//249 375//249
f 388//250 389//250 377//250 376//250
f 389//251 390//251 378//251 377//251
f 390//252 391//252 379//252 378//252
f 391//253 392//253 380//253 379//253
f 392//254 393//254 381//254 380//254
f 393//255 394//255 382//255 381//255
f 394//256 395//256 383//256 382//256
f 395//257 396//257 384//257 383//257
f 396//258 385//258 373//258 384//258
f 405//265 406//265 407//265 408//265 409//265 410//265 411//265 412//265 413//265 414//265 415//265 416//265
f 428//266 427//266 426//266 425//266 424//266 423//266 422//266 421//266 420//266 419//266 418//266 417//266
f 417//267 418//267 406//267 405//267
f 418//268 419//268 407//268 406//268
f 419//269 420//269 408//269 407//269
f 420//270 421//270 409//270 408//270
f 421//271 422//271 410//271 409//271
f 422//272 423//272 411//272 410//272
f 423//273 424//273 412//273 411//273
f 424//274 425//274 413//274 412//274
f 425//275 426//275 414//275 413//275
f 426//276 427//276 415//276 414//276
f 427//277 428//277 416//277 415//277
f 428//278 417//278 405//278 416//278
f 437//285 438//285 439//285 440//285 441//285 442//285 443//285 444//285 445//285 446//285 447//285 448//285
f 460//286 459//286 458//286 457//286 456//286 455//286 454//286 453//286 452//286 451//286 450//286 449//286
f 449//287 450//287 438//287 437//287
f 450//288 451//288 439//288 438//288
f 451//289 452//289 440//289 439//289
f 452//290 453//290 441//290 440//290
f 453//291 454//291 442//291 441//291
f 454//292 455//292 443//292 442//292
f 455//293 456//293 444//293 443//293
f 456//294 457//294 445//294 444//294
f 457//295 458//295 446//295 445//295
f 458//296 459//296 447//296 446//296
f 459//297 460//297 448//297 447//297
f 460//298 449//298 437//298 448//298
usemtl alu
f 365//239 368//239 367//239 366//239
f 369//240 370//240 371//240 372//240
f 365//241 366//241 370//241 369//241
f 368//242 372//242 371//242 367//242
f 366//243 367//243 371//243 370//243
f 365//244 369//244 372//244 368//244
f 397//259 400//259 399//259 398//259
f 401//260 402//260 403//260 404//260
f 397//261 398//261 402//261 401//261
f 400//262 404//262 403//262 399//262
f 398//263 399//263 403//263 402//263
f 397//264 401//264 404//264 400//264
f 429//279 432//279 431//279 430//279
f 433//280 434//280 435//280 436//280
f 429//281 430//281 434//281 433//281
f 432//282 436//282 435//282 431//282
f 430//283 431//283 435//283 434//283
f 429//284 433//284 436//284 432//284
